# xmcd
#
# Track frame offsets:
#	150
#	16048
#	34510
#	45883
#	58910
#	71195
#	86265
#	99198
#	113763
#	129513
#	143858
#	158630
#	172725
#	195585
#	210770
#	225788
#	239870
#	252780
#	266130
#
# Disc length: 3780 seconds
#
# Revision: 0
# Processed by: cddbd v1.5.2PL0 Copyright (c) Steve Scherf et al.
# Submitted via: EasyCDDAExtractor 16.0.6.1
#
DISCID=e80ec213
DTITLE=Γλυκερία - Σμυρναίϊκα-Γλυκερία
DYEAR=1988
DGENRE=Παραδοσιακή
TTITLE0=Η μπολσεβίκα (Κέρνα μας) [Π. Τούντα]
TTITLE1=Ο Μποχώρης
TTITLE2=Σκερτσοπεταχτό
TTITLE3=Μπουρνοβαλιά
TTITLE4=Ο φερετζές
TTITLE5=Σμυρνιά
TTITLE6=Αρμενίτσα (Δυό σεβντάδες) [Π. Τούντα]
TTITLE7=Τι σε μέλει εσένα
TTITLE8=Η Έλλη
TTITLE9=Τ' αποφάσισα μικρή μου [Δ. Σέμση]
TTITLE10=Κουκλάκι [Π. Τούντα]
TTITLE11=Ντερβίσαινα [Ε. Παπάζογλου]
TTITLE12=Τζιβαέρι
TTITLE13=Γκελ γκελ αμάν (Ήθελα να 'ρθώ το βράδυ) [παραδ. Σμύρνης]
TTITLE14=Καραμπιμπερίμ [Σ. Περιστέρη-Γ. Παπαϊωάννου]
TTITLE15=Βάλε με στην αγκαλιά σου [Ε. Παπάζογλου]
TTITLE16=Κατσιβέλα [Γ. Μητσάκη]
TTITLE17=Χήρα η μοντέρνα [Π. Τούντα]
TTITLE18=Ο μεμέτης [παραδοσιακό]
EXTD=
EXTT0=
EXTT1=
EXTT2=
EXTT3=
EXTT4=
EXTT5=
EXTT6=
EXTT7=
EXTT8=
EXTT9=
EXTT10=
EXTT11=
EXTT12=
EXTT13=
EXTT14=
EXTT15=
EXTT16=
EXTT17=
EXTT18=
PLAYORDER=
